<?xml version="1.0" encoding="UTF-8" standalone="no"?><svg xmlns="http://www.w3.org/2000/svg" xmlns:xlink="http://www.w3.org/1999/xlink" contentStyleType="text/css" height="428px" preserveAspectRatio="none" style="width:1183px;height:428px;background:#FFFFFF;" version="1.1" viewBox="0 0 1183 428" width="1183px" zoomAndPan="magnify"><defs/><g><rect fill="#FFFFFF" height="303.5156" style="stroke:#181818;stroke-width:1.0;" width="10" x="167" y="69.9609"/><rect fill="#FFFFFF" height="242.8125" style="stroke:#181818;stroke-width:1.0;" width="10" x="323" y="100.3125"/><rect fill="#FFFFFF" height="151.7578" style="stroke:#181818;stroke-width:1.0;" width="10" x="603" y="161.0156"/><rect fill="#FFFFFF" height="60.7031" style="stroke:#181818;stroke-width:1.0;" width="10" x="858" y="191.3672"/><line style="stroke:#181818;stroke-width:0.5;stroke-dasharray:5.0,5.0;" x1="172" x2="172" y1="37.6094" y2="391.4766"/><line style="stroke:#181818;stroke-width:0.5;stroke-dasharray:5.0,5.0;" x1="327.5" x2="327.5" y1="37.6094" y2="391.4766"/><line style="stroke:#181818;stroke-width:0.5;stroke-dasharray:5.0,5.0;" x1="607.5" x2="607.5" y1="37.6094" y2="391.4766"/><line style="stroke:#181818;stroke-width:0.5;stroke-dasharray:5.0,5.0;" x1="863" x2="863" y1="37.6094" y2="391.4766"/><line style="stroke:#181818;stroke-width:0.5;stroke-dasharray:5.0,5.0;" x1="1009" x2="1009" y1="37.6094" y2="391.4766"/><line style="stroke:#181818;stroke-width:0.5;stroke-dasharray:5.0,5.0;" x1="1142" x2="1142" y1="37.6094" y2="391.4766"/><rect fill="#E2E2F0" height="31.6094" rx="2.5" ry="2.5" style="stroke:#181818;stroke-width:0.5;" width="118" x="113" y="5"/><text fill="#000000" font-family="sans-serif" font-size="14" lengthAdjust="spacing" textLength="104" x="120" y="26.5332">:HTML Template</text><rect fill="#E2E2F0" height="31.6094" rx="2.5" ry="2.5" style="stroke:#181818;stroke-width:0.5;" width="118" x="113" y="390.4766"/><text fill="#000000" font-family="sans-serif" font-size="14" lengthAdjust="spacing" textLength="104" x="120" y="412.0098">:HTML Template</text><rect fill="#E2E2F0" height="31.6094" rx="2.5" ry="2.5" style="stroke:#181818;stroke-width:0.5;" width="91" x="282.5" y="5"/><text fill="#000000" font-family="sans-serif" font-size="14" lengthAdjust="spacing" textLength="77" x="289.5" y="26.5332">:Component</text><rect fill="#E2E2F0" height="31.6094" rx="2.5" ry="2.5" style="stroke:#181818;stroke-width:0.5;" width="91" x="282.5" y="390.4766"/><text fill="#000000" font-family="sans-serif" font-size="14" lengthAdjust="spacing" textLength="77" x="289.5" y="412.0098">:Component</text><rect fill="#E2E2F0" height="31.6094" rx="2.5" ry="2.5" style="stroke:#181818;stroke-width:0.5;" width="65" x="575.5" y="5"/><text fill="#000000" font-family="sans-serif" font-size="14" lengthAdjust="spacing" textLength="51" x="582.5" y="26.5332">:Service</text><rect fill="#E2E2F0" height="31.6094" rx="2.5" ry="2.5" style="stroke:#181818;stroke-width:0.5;" width="65" x="575.5" y="390.4766"/><text fill="#000000" font-family="sans-serif" font-size="14" lengthAdjust="spacing" textLength="51" x="582.5" y="412.0098">:Service</text><rect fill="#E2E2F0" height="31.6094" rx="2.5" ry="2.5" style="stroke:#181818;stroke-width:0.5;" width="96" x="815" y="5"/><text fill="#000000" font-family="sans-serif" font-size="14" lengthAdjust="spacing" textLength="82" x="822" y="26.5332">:HTTP Driver</text><rect fill="#E2E2F0" height="31.6094" rx="2.5" ry="2.5" style="stroke:#181818;stroke-width:0.5;" width="96" x="815" y="390.4766"/><text fill="#000000" font-family="sans-serif" font-size="14" lengthAdjust="spacing" textLength="82" x="822" y="412.0098">:HTTP Driver</text><rect fill="#E2E2F0" height="31.6094" rx="2.5" ry="2.5" style="stroke:#181818;stroke-width:0.5;" width="177" x="921" y="5"/><text fill="#000000" font-family="sans-serif" font-size="14" lengthAdjust="spacing" textLength="163" x="928" y="26.5332">:CreateBackofficeUserDto</text><rect fill="#E2E2F0" height="31.6094" rx="2.5" ry="2.5" style="stroke:#181818;stroke-width:0.5;" width="177" x="921" y="390.4766"/><text fill="#000000" font-family="sans-serif" font-size="14" lengthAdjust="spacing" textLength="163" x="928" y="412.0098">:CreateBackofficeUserDto</text><rect fill="#E2E2F0" height="31.6094" rx="2.5" ry="2.5" style="stroke:#181818;stroke-width:0.5;" width="69" x="1108" y="5"/><text fill="#000000" font-family="sans-serif" font-size="14" lengthAdjust="spacing" textLength="55" x="1115" y="26.5332">:UserDto</text><rect fill="#E2E2F0" height="31.6094" rx="2.5" ry="2.5" style="stroke:#181818;stroke-width:0.5;" width="69" x="1108" y="390.4766"/><text fill="#000000" font-family="sans-serif" font-size="14" lengthAdjust="spacing" textLength="55" x="1115" y="412.0098">:UserDto</text><rect fill="#FFFFFF" height="303.5156" style="stroke:#181818;stroke-width:1.0;" width="10" x="167" y="69.9609"/><rect fill="#FFFFFF" height="242.8125" style="stroke:#181818;stroke-width:1.0;" width="10" x="323" y="100.3125"/><rect fill="#FFFFFF" height="151.7578" style="stroke:#181818;stroke-width:1.0;" width="10" x="603" y="161.0156"/><rect fill="#FFFFFF" height="60.7031" style="stroke:#181818;stroke-width:1.0;" width="10" x="858" y="191.3672"/><ellipse cx="4.5" cy="69.2109" fill="none" rx="4" ry="4" style="stroke:#181818;stroke-width:1.5;"/><polygon fill="#181818" points="155,65.9609,165,69.9609,155,73.9609,159,69.9609" style="stroke:#181818;stroke-width:1.0;"/><line style="stroke:#181818;stroke-width:1.0;" x1="9" x2="161" y1="69.9609" y2="69.9609"/><text fill="#000000" font-family="sans-serif" font-size="13" font-weight="bold" lengthAdjust="spacing" textLength="7" x="12" y="65.1045">1</text><text fill="#000000" font-family="sans-serif" font-size="13" lengthAdjust="spacing" textLength="129" x="23" y="65.1045">Create backoffice user</text><polygon fill="#181818" points="311,96.3125,321,100.3125,311,104.3125,315,100.3125" style="stroke:#181818;stroke-width:1.0;"/><line style="stroke:#181818;stroke-width:1.0;" x1="177" x2="317" y1="100.3125" y2="100.3125"/><text fill="#000000" font-family="sans-serif" font-size="13" font-weight="bold" lengthAdjust="spacing" textLength="7" x="184" y="95.4561">2</text><text fill="#000000" font-family="sans-serif" font-size="13" lengthAdjust="spacing" textLength="116" x="195" y="95.4561">backoffice user data</text><polygon fill="#181818" points="997.5,126.6641,1007.5,130.6641,997.5,134.6641,1001.5,130.6641" style="stroke:#181818;stroke-width:1.0;"/><line style="stroke:#181818;stroke-width:1.0;" x1="333" x2="1003.5" y1="130.6641" y2="130.6641"/><text fill="#000000" font-family="sans-serif" font-size="13" font-weight="bold" lengthAdjust="spacing" textLength="7" x="340" y="125.8076">3</text><text fill="#000000" font-family="sans-serif" font-size="13" lengthAdjust="spacing" textLength="108" x="351" y="125.8076">Parse data to DTO</text><polygon fill="#181818" points="591,157.0156,601,161.0156,591,165.0156,595,161.0156" style="stroke:#181818;stroke-width:1.0;"/><line style="stroke:#181818;stroke-width:1.0;" x1="333" x2="597" y1="161.0156" y2="161.0156"/><text fill="#000000" font-family="sans-serif" font-size="13" font-weight="bold" lengthAdjust="spacing" textLength="7" x="340" y="156.1592">4</text><text fill="#000000" font-family="sans-serif" font-size="13" lengthAdjust="spacing" textLength="240" x="351" y="156.1592">createBackofficeUser(backoffice user dto)</text><polygon fill="#181818" points="846,187.3672,856,191.3672,846,195.3672,850,191.3672" style="stroke:#181818;stroke-width:1.0;"/><line style="stroke:#181818;stroke-width:1.0;" x1="613" x2="852" y1="191.3672" y2="191.3672"/><text fill="#000000" font-family="sans-serif" font-size="13" font-weight="bold" lengthAdjust="spacing" textLength="7" x="620" y="186.5107">5</text><text fill="#000000" font-family="sans-serif" font-size="13" lengthAdjust="spacing" textLength="215" x="631" y="186.5107">http request to create backoffice user</text><polygon fill="#181818" points="1170,217.7188,1180,221.7188,1170,225.7188,1174,221.7188" style="stroke:#181818;stroke-width:1.0;"/><line style="stroke:#181818;stroke-width:1.0;" x1="868" x2="1176" y1="221.7188" y2="221.7188"/><text fill="#000000" font-family="sans-serif" font-size="13" font-weight="bold" lengthAdjust="spacing" textLength="7" x="875" y="216.8623">6</text><text fill="#000000" font-family="sans-serif" font-size="13" lengthAdjust="spacing" textLength="126" x="886" y="216.8623">POST backoffice user</text><polygon fill="#181818" points="624,248.0703,614,252.0703,624,256.0703,620,252.0703" style="stroke:#181818;stroke-width:1.0;"/><line style="stroke:#181818;stroke-width:1.0;stroke-dasharray:2.0,2.0;" x1="618" x2="862" y1="252.0703" y2="252.0703"/><text fill="#000000" font-family="sans-serif" font-size="13" font-weight="bold" lengthAdjust="spacing" textLength="7" x="630" y="247.2139">7</text><text fill="#000000" font-family="sans-serif" font-size="13" lengthAdjust="spacing" textLength="125" x="641" y="247.2139">backoffice user JSON</text><polygon fill="#181818" points="1130.5,278.4219,1140.5,282.4219,1130.5,286.4219,1134.5,282.4219" style="stroke:#181818;stroke-width:1.0;"/><line style="stroke:#181818;stroke-width:1.0;" x1="613" x2="1136.5" y1="282.4219" y2="282.4219"/><text fill="#000000" font-family="sans-serif" font-size="13" font-weight="bold" lengthAdjust="spacing" textLength="7" x="620" y="277.5654">8</text><text fill="#000000" font-family="sans-serif" font-size="13" lengthAdjust="spacing" textLength="118" x="631" y="277.5654">Parse JSON to User</text><polygon fill="#181818" points="344,308.7734,334,312.7734,344,316.7734,340,312.7734" style="stroke:#181818;stroke-width:1.0;"/><line style="stroke:#181818;stroke-width:1.0;stroke-dasharray:2.0,2.0;" x1="338" x2="607" y1="312.7734" y2="312.7734"/><text fill="#000000" font-family="sans-serif" font-size="13" font-weight="bold" lengthAdjust="spacing" textLength="7" x="350" y="307.917">9</text><text fill="#000000" font-family="sans-serif" font-size="13" lengthAdjust="spacing" textLength="87" x="361" y="307.917">backoffice user</text><polygon fill="#181818" points="188,339.125,178,343.125,188,347.125,184,343.125" style="stroke:#181818;stroke-width:1.0;"/><line style="stroke:#181818;stroke-width:1.0;stroke-dasharray:2.0,2.0;" x1="182" x2="327" y1="343.125" y2="343.125"/><text fill="#000000" font-family="sans-serif" font-size="13" font-weight="bold" lengthAdjust="spacing" textLength="14" x="194" y="338.2686">10</text><text fill="#000000" font-family="sans-serif" font-size="13" lengthAdjust="spacing" textLength="90" x="212" y="338.2686">Inform Success</text><polygon fill="#181818" points="11,369.4766,1,373.4766,11,377.4766,7,373.4766" style="stroke:#181818;stroke-width:1.0;"/><line style="stroke:#181818;stroke-width:1.0;stroke-dasharray:2.0,2.0;" x1="5" x2="171" y1="373.4766" y2="373.4766"/><text fill="#000000" font-family="sans-serif" font-size="13" font-weight="bold" lengthAdjust="spacing" textLength="14" x="17" y="368.6201">11</text><text fill="#000000" font-family="sans-serif" font-size="13" lengthAdjust="spacing" textLength="90" x="35" y="368.6201">Inform Success</text><!--MD5=[68dfa31c8c62e67d89b63e3ef13c11d0]
@startuml ProcessView

autonumber

participant ":HTML Template" as Template
participant ":Component" as Component
participant ":Service" as Service
participant ":HTTP Driver" as Driver
participant ":CreateBackofficeUserDto" as Dto
participant ":UserDto" as UserDto


?o-> Template: Create backoffice user
activate Template
Template-> Component: backoffice user data
activate Component
Component -> Dto: Parse data to DTO
Component -> Service: createBackofficeUser(backoffice user dto)
activate Service

Service -> Driver: http request to create backoffice user
activate Driver
Driver ->: POST backoffice user
Driver - -> Service: backoffice user JSON
deactivate Driver
Service -> UserDto: Parse JSON to User
Service - -> Component: backoffice user
deactivate Service
Component - -> Template: Inform Success
deactivate Component
<- - Template: Inform Success
deactivate Template


@enduml

PlantUML version 1.2022.7(Mon Aug 22 18:01:30 WEST 2022)
(GPL source distribution)
Java Runtime: Java(TM) SE Runtime Environment
JVM: Java HotSpot(TM) 64-Bit Server VM
Default Encoding: UTF-8
Language: pt
Country: PT
--></g></svg>