<?xml version="1.0" encoding="UTF-8" standalone="no"?><svg xmlns="http://www.w3.org/2000/svg" xmlns:xlink="http://www.w3.org/1999/xlink" contentStyleType="text/css" height="245px" preserveAspectRatio="none" style="width:259px;height:245px;background:#FFFFFF;" version="1.1" viewBox="0 0 259 245" width="259px" zoomAndPan="magnify"><defs/><g><rect fill="#FFFFFF" height="61.7031" style="stroke:#181818;stroke-width:1.0;" width="10" x="22.5" y="92.6094"/><rect fill="#FFFFFF" height="30.3516" style="stroke:#181818;stroke-width:1.0;" width="10" x="218.5" y="114.9609"/><line style="stroke:#181818;stroke-width:0.5;stroke-dasharray:5.0,5.0;" x1="27" x2="27" y1="82.6094" y2="163.3125"/><line style="stroke:#181818;stroke-width:0.5;stroke-dasharray:5.0,5.0;" x1="223.5" x2="223.5" y1="82.6094" y2="163.3125"/><text fill="#000000" font-family="sans-serif" font-size="14" lengthAdjust="spacing" textLength="39" x="5" y="79.5332">Admin</text><ellipse cx="27.5" cy="13.5" fill="#E2E2F0" rx="8" ry="8" style="stroke:#181818;stroke-width:0.5;"/><path d="M27.5,21.5 L27.5,48.5 M14.5,29.5 L40.5,29.5 M27.5,48.5 L14.5,63.5 M27.5,48.5 L40.5,63.5 " fill="none" style="stroke:#181818;stroke-width:0.5;"/><text fill="#000000" font-family="sans-serif" font-size="14" lengthAdjust="spacing" textLength="39" x="5" y="176.8457">Admin</text><ellipse cx="27.5" cy="188.4219" fill="#E2E2F0" rx="8" ry="8" style="stroke:#181818;stroke-width:0.5;"/><path d="M27.5,196.4219 L27.5,223.4219 M14.5,204.4219 L40.5,204.4219 M27.5,223.4219 L14.5,238.4219 M27.5,223.4219 L40.5,238.4219 " fill="none" style="stroke:#181818;stroke-width:0.5;"/><rect fill="#E2E2F0" height="31.6094" rx="2.5" ry="2.5" style="stroke:#181818;stroke-width:0.5;" width="60" x="193.5" y="50"/><text fill="#000000" font-family="sans-serif" font-size="14" lengthAdjust="spacing" textLength="46" x="200.5" y="71.5332">System</text><rect fill="#E2E2F0" height="31.6094" rx="2.5" ry="2.5" style="stroke:#181818;stroke-width:0.5;" width="60" x="193.5" y="162.3125"/><text fill="#000000" font-family="sans-serif" font-size="14" lengthAdjust="spacing" textLength="46" x="200.5" y="183.8457">System</text><rect fill="#FFFFFF" height="61.7031" style="stroke:#181818;stroke-width:1.0;" width="10" x="22.5" y="92.6094"/><rect fill="#FFFFFF" height="30.3516" style="stroke:#181818;stroke-width:1.0;" width="10" x="218.5" y="114.9609"/><polygon fill="#181818" points="206.5,110.9609,216.5,114.9609,206.5,118.9609,210.5,114.9609" style="stroke:#181818;stroke-width:1.0;"/><line style="stroke:#181818;stroke-width:1.0;" x1="32.5" x2="212.5" y1="114.9609" y2="114.9609"/><text fill="#000000" font-family="sans-serif" font-size="13" font-weight="bold" lengthAdjust="spacing" textLength="7" x="39.5" y="110.1045">1</text><text fill="#000000" font-family="sans-serif" font-size="13" lengthAdjust="spacing" textLength="156" x="50.5" y="110.1045">Create new backoffice user</text><polygon fill="#181818" points="43.5,141.3125,33.5,145.3125,43.5,149.3125,39.5,145.3125" style="stroke:#181818;stroke-width:1.0;"/><line style="stroke:#181818;stroke-width:1.0;stroke-dasharray:2.0,2.0;" x1="37.5" x2="222.5" y1="145.3125" y2="145.3125"/><text fill="#000000" font-family="sans-serif" font-size="13" font-weight="bold" lengthAdjust="spacing" textLength="7" x="49.5" y="140.4561">2</text><text fill="#000000" font-family="sans-serif" font-size="13" lengthAdjust="spacing" textLength="90" x="60.5" y="140.4561">Inform Success</text><!--MD5=[aa2c23f8d8b02bedce24ff44bbb76fdc]
@startuml
'https://plantuml.com/sequence-diagram

autonumber
actor "Admin" as Adm

activate Adm
Adm -> System: Create new backoffice user 
activate System
Adm <- - System: Inform Success
deactivate System

@enduml

@startuml

autonumber
actor "Admin" as Adm

activate Adm
Adm -> System: Create new backoffice user 
activate System
Adm <- - System: Inform Success
deactivate System

@enduml

PlantUML version 1.2022.7(Mon Aug 22 18:01:30 WEST 2022)
(GPL source distribution)
Java Runtime: Java(TM) SE Runtime Environment
JVM: Java HotSpot(TM) 64-Bit Server VM
Default Encoding: UTF-8
Language: pt
Country: PT
--></g></svg>