<?xml version="1.0" encoding="UTF-8" standalone="no"?><svg xmlns="http://www.w3.org/2000/svg" xmlns:xlink="http://www.w3.org/1999/xlink" contentStyleType="text/css" height="103px" preserveAspectRatio="none" style="width:277px;height:103px;background:#FFFFFF;" version="1.1" viewBox="0 0 277 103" width="277px" zoomAndPan="magnify"><defs/><g><!--MD5=[1478444cbd0d707d5292787239839939]
cluster RobDroneGo--><g id="cluster_RobDroneGo"><path d="M108.5,6 L200.5,6 A3.75,3.75 0 0 1 203,8.5 L210,29.6094 L267.5,29.6094 A2.5,2.5 0 0 1 270,32.1094 L270,87.5 A2.5,2.5 0 0 1 267.5,90 L108.5,90 A2.5,2.5 0 0 1 106,87.5 L106,8.5 A2.5,2.5 0 0 1 108.5,6 " fill="none" style="stroke:#000000;stroke-width:1.5;"/><line style="stroke:#000000;stroke-width:1.5;" x1="106" x2="210" y1="29.6094" y2="29.6094"/><text fill="#000000" font-family="sans-serif" font-size="14" font-weight="bold" lengthAdjust="spacing" textLength="91" x="110" y="22.5332">RobDroneGo</text></g><g id="elem_UC46"><ellipse cx="188.08" cy="58.1227" fill="#F1F1F1" rx="66.08" ry="15.6227" style="stroke:#181818;stroke-width:0.5;"/><text fill="#000000" font-family="sans-serif" font-size="14" lengthAdjust="spacing" textLength="76" x="147.08" y="62.6393">Create User</text></g><!--MD5=[5bb58f447e60c14e9d23282c6a4405f4]
entity ADM--><g id="elem_ADM"><ellipse cx="33.5" cy="35" fill="#F1F1F1" rx="16" ry="16" style="stroke:#181818;stroke-width:1.5;"/><path d="M33.5,55 C37.5,55 40.5,55 44.5,51 C52.5,51 60.5,59 60.5,67 L60.5,71 C60.5,75 56.5,79 52.5,79 L14.5,79 C10.5,79 6.5,75 6.5,71 L6.5,67 C6.5,59 14.5,51 22.5,51 C26.5,55 29.5,55 33.5,55 " fill="#F1F1F1" style="stroke:#181818;stroke-width:1.5;"/><text fill="#000000" font-family="sans-serif" font-size="14" lengthAdjust="spacing" textLength="55" x="6" y="95.0332">UI Admin</text></g><!--MD5=[79fcae1063f81fc98519c969acacb538]
link ADM to UC46--><g id="link_ADM_UC46"><path d="M62.12,58 C77.42,58 97.2,58 116.49,58 " fill="none" id="ADM-to-UC46" style="stroke:#181818;stroke-width:1.0;"/><polygon fill="#181818" points="121.91,58,112.91,54,116.91,58,112.91,62,121.91,58" style="stroke:#181818;stroke-width:1.0;"/></g><!--MD5=[933b2475c884f19e088cefb6882edcae]
@startuml
left to right direction

skinparam actorStyle awesome

actor "UI Admin" as ADM

package  RobDroneGo  {
  usecase "Create User" as UC46
}

ADM - -> UC46

@enduml

PlantUML version 1.2022.7(Mon Aug 22 18:01:30 WEST 2022)
(GPL source distribution)
Java Runtime: Java(TM) SE Runtime Environment
JVM: Java HotSpot(TM) 64-Bit Server VM
Default Encoding: UTF-8
Language: pt
Country: PT
--></g></svg>