<?xml version="1.0" encoding="us-ascii" standalone="no"?><svg xmlns="http://www.w3.org/2000/svg" xmlns:xlink="http://www.w3.org/1999/xlink" contentStyleType="text/css" height="300px" preserveAspectRatio="none" style="width:614px;height:300px;background:#FFFFFF;" version="1.1" viewBox="0 0 614 300" width="614.4px" zoomAndPan="magnify"><defs/><g><rect fill="#FFFFFF" height="205.3688" style="stroke:#181818;stroke-width:0.8000000000000002;" width="8" x="88" y="52.9313"/><rect fill="#FFFFFF" height="159.7313" style="stroke:#181818;stroke-width:0.8000000000000002;" width="8" x="240" y="75.75"/><rect fill="#FFFFFF" height="114.0938" style="stroke:#181818;stroke-width:0.8000000000000002;" width="8" x="338.4" y="98.5688"/><rect fill="#FFFFFF" height="22.8188" style="stroke:#181818;stroke-width:0.8000000000000002;" width="8" x="436.8" y="121.3875"/><rect fill="#FFFFFF" height="22.8188" style="stroke:#181818;stroke-width:0.8000000000000002;" width="8" x="506.8" y="167.025"/><line style="stroke:#181818;stroke-width:0.4000000000000001;stroke-dasharray:5.0,5.0;" x1="91.6" x2="91.6" y1="28.5125" y2="272.7"/><line style="stroke:#181818;stroke-width:0.4000000000000001;stroke-dasharray:5.0,5.0;" x1="243.6" x2="243.6" y1="28.5125" y2="272.7"/><line style="stroke:#181818;stroke-width:0.4000000000000001;stroke-dasharray:5.0,5.0;" x1="342.4" x2="342.4" y1="28.5125" y2="272.7"/><line style="stroke:#181818;stroke-width:0.4000000000000001;stroke-dasharray:5.0,5.0;" x1="440.4" x2="440.4" y1="28.5125" y2="272.7"/><line style="stroke:#181818;stroke-width:0.4000000000000001;stroke-dasharray:5.0,5.0;" x1="510.8" x2="510.8" y1="28.5125" y2="272.7"/><line style="stroke:#181818;stroke-width:0.4000000000000001;stroke-dasharray:5.0,5.0;" x1="578.8" x2="578.8" y1="28.5125" y2="272.7"/><rect fill="#E2E2F0" height="23.7125" rx="2" ry="2" style="stroke:#181818;stroke-width:0.4000000000000001;" width="68" x="58" y="4"/><text fill="#000000" font-family="sans-serif" font-size="11.2" lengthAdjust="spacing" textLength="56.8" x="63.6" y="19.7391">:UserRoute</text><rect fill="#E2E2F0" height="23.7125" rx="2" ry="2" style="stroke:#181818;stroke-width:0.4000000000000001;" width="68" x="58" y="271.9"/><text fill="#000000" font-family="sans-serif" font-size="11.2" lengthAdjust="spacing" textLength="56.8" x="63.6" y="287.6391">:UserRoute</text><rect fill="#E2E2F0" height="23.7125" rx="2" ry="2" style="stroke:#181818;stroke-width:0.4000000000000001;" width="87.2" x="200.4" y="4"/><text fill="#000000" font-family="sans-serif" font-size="11.2" lengthAdjust="spacing" textLength="76" x="206" y="19.7391">:UserController</text><rect fill="#E2E2F0" height="23.7125" rx="2" ry="2" style="stroke:#181818;stroke-width:0.4000000000000001;" width="87.2" x="200.4" y="271.9"/><text fill="#000000" font-family="sans-serif" font-size="11.2" lengthAdjust="spacing" textLength="76" x="206" y="287.6391">:UserController</text><rect fill="#E2E2F0" height="23.7125" rx="2" ry="2" style="stroke:#181818;stroke-width:0.4000000000000001;" width="75.2" x="304.8" y="4"/><text fill="#000000" font-family="sans-serif" font-size="11.2" lengthAdjust="spacing" textLength="64" x="310.4" y="19.7391">:UserService</text><rect fill="#E2E2F0" height="23.7125" rx="2" ry="2" style="stroke:#181818;stroke-width:0.4000000000000001;" width="75.2" x="304.8" y="271.9"/><text fill="#000000" font-family="sans-serif" font-size="11.2" lengthAdjust="spacing" textLength="64" x="310.4" y="287.6391">:UserService</text><rect fill="#E2E2F0" height="23.7125" rx="2" ry="2" style="stroke:#181818;stroke-width:0.4000000000000001;" width="64.8" x="408.4" y="4"/><text fill="#000000" font-family="sans-serif" font-size="11.2" lengthAdjust="spacing" textLength="53.6" x="414" y="19.7391">:UserRepo</text><rect fill="#E2E2F0" height="23.7125" rx="2" ry="2" style="stroke:#181818;stroke-width:0.4000000000000001;" width="64.8" x="408.4" y="271.9"/><text fill="#000000" font-family="sans-serif" font-size="11.2" lengthAdjust="spacing" textLength="53.6" x="414" y="287.6391">:UserRepo</text><rect fill="#E2E2F0" height="23.7125" rx="2" ry="2" style="stroke:#181818;stroke-width:0.4000000000000001;" width="59.2" x="481.2" y="4"/><text fill="#000000" font-family="sans-serif" font-size="11.2" lengthAdjust="spacing" textLength="48" x="486.8" y="19.7391">:UserMap</text><rect fill="#E2E2F0" height="23.7125" rx="2" ry="2" style="stroke:#181818;stroke-width:0.4000000000000001;" width="59.2" x="481.2" y="271.9"/><text fill="#000000" font-family="sans-serif" font-size="11.2" lengthAdjust="spacing" textLength="48" x="486.8" y="287.6391">:UserMap</text><rect fill="#E2E2F0" height="23.7125" rx="2" ry="2" style="stroke:#181818;stroke-width:0.4000000000000001;" width="61.6" x="548.4" y="4"/><text fill="#000000" font-family="sans-serif" font-size="11.2" lengthAdjust="spacing" textLength="50.4" x="554" y="19.7391">:UserDTO</text><rect fill="#E2E2F0" height="23.7125" rx="2" ry="2" style="stroke:#181818;stroke-width:0.4000000000000001;" width="61.6" x="548.4" y="271.9"/><text fill="#000000" font-family="sans-serif" font-size="11.2" lengthAdjust="spacing" textLength="50.4" x="554" y="287.6391">:UserDTO</text><rect fill="#FFFFFF" height="205.3688" style="stroke:#181818;stroke-width:0.8000000000000002;" width="8" x="88" y="52.9313"/><rect fill="#FFFFFF" height="159.7313" style="stroke:#181818;stroke-width:0.8000000000000002;" width="8" x="240" y="75.75"/><rect fill="#FFFFFF" height="114.0938" style="stroke:#181818;stroke-width:0.8000000000000002;" width="8" x="338.4" y="98.5688"/><rect fill="#FFFFFF" height="22.8188" style="stroke:#181818;stroke-width:0.8000000000000002;" width="8" x="436.8" y="121.3875"/><rect fill="#FFFFFF" height="22.8188" style="stroke:#181818;stroke-width:0.8000000000000002;" width="8" x="506.8" y="167.025"/><ellipse cx="40.4" cy="52.3313" fill="none" rx="3.2" ry="3.2" style="stroke:#181818;stroke-width:1.2000000000000002;"/><polygon fill="#181818" points="78.4,49.7313,86.4,52.9313,78.4,56.1313,81.6,52.9313" style="stroke:#181818;stroke-width:0.8000000000000002;"/><line style="stroke:#181818;stroke-width:0.8000000000000002;" x1="44" x2="83.2" y1="52.9313" y2="52.9313"/><text fill="#000000" font-family="sans-serif" font-size="10.4" font-weight="bold" lengthAdjust="spacing" textLength="5.6" x="46.4" y="49.1273">1</text><text fill="#000000" font-family="sans-serif" font-size="10.4" lengthAdjust="spacing" textLength="20.8" x="55.2" y="49.1273">GET</text><polygon fill="#181818" points="230.4,72.55,238.4,75.75,230.4,78.95,233.6,75.75" style="stroke:#181818;stroke-width:0.8000000000000002;"/><line style="stroke:#181818;stroke-width:0.8000000000000002;" x1="96" x2="235.2" y1="75.75" y2="75.75"/><text fill="#000000" font-family="sans-serif" font-size="10.4" font-weight="bold" lengthAdjust="spacing" textLength="5.6" x="101.6" y="71.9461">2</text><text fill="#000000" font-family="sans-serif" font-size="10.4" lengthAdjust="spacing" textLength="120" x="110.4" y="71.9461">getUserInfo(req, res, next)</text><polygon fill="#181818" points="328.8,95.3688,336.8,98.5688,328.8,101.7688,332,98.5688" style="stroke:#181818;stroke-width:0.8000000000000002;"/><line style="stroke:#181818;stroke-width:0.8000000000000002;" x1="248" x2="333.6" y1="98.5688" y2="98.5688"/><text fill="#000000" font-family="sans-serif" font-size="10.4" font-weight="bold" lengthAdjust="spacing" textLength="5.6" x="253.6" y="94.7648">3</text><text fill="#000000" font-family="sans-serif" font-size="10.4" lengthAdjust="spacing" textLength="66.4" x="262.4" y="94.7648">getUserInfo(id)</text><polygon fill="#181818" points="427.2,118.1875,435.2,121.3875,427.2,124.5875,430.4,121.3875" style="stroke:#181818;stroke-width:0.8000000000000002;"/><line style="stroke:#181818;stroke-width:0.8000000000000002;" x1="346.4" x2="432" y1="121.3875" y2="121.3875"/><text fill="#000000" font-family="sans-serif" font-size="10.4" font-weight="bold" lengthAdjust="spacing" textLength="5.6" x="352" y="117.5836">4</text><text fill="#000000" font-family="sans-serif" font-size="10.4" lengthAdjust="spacing" textLength="66.4" x="360.8" y="117.5836">getUserInfo(id)</text><polygon fill="#181818" points="355.2,141.0063,347.2,144.2063,355.2,147.4063,352,144.2063" style="stroke:#181818;stroke-width:0.8000000000000002;"/><line style="stroke:#181818;stroke-width:0.8000000000000002;stroke-dasharray:2.0,2.0;" x1="350.4" x2="440" y1="144.2063" y2="144.2063"/><text fill="#000000" font-family="sans-serif" font-size="10.4" font-weight="bold" lengthAdjust="spacing" textLength="5.6" x="360" y="140.4023">5</text><text fill="#000000" font-family="sans-serif" font-size="10.4" lengthAdjust="spacing" textLength="37.6" x="368.8" y="140.4023">UserInfo</text><polygon fill="#181818" points="497.2,163.825,505.2,167.025,497.2,170.225,500.4,167.025" style="stroke:#181818;stroke-width:0.8000000000000002;"/><line style="stroke:#181818;stroke-width:0.8000000000000002;" x1="346.4" x2="502" y1="167.025" y2="167.025"/><text fill="#000000" font-family="sans-serif" font-size="10.4" font-weight="bold" lengthAdjust="spacing" textLength="5.6" x="352" y="163.2211">6</text><text fill="#000000" font-family="sans-serif" font-size="10.4" lengthAdjust="spacing" textLength="73.6" x="360.8" y="163.2211">toDTO(UserInfo)</text><polygon fill="#181818" points="569.6,186.6438,577.6,189.8438,569.6,193.0438,572.8,189.8438" style="stroke:#181818;stroke-width:0.8000000000000002;"/><line style="stroke:#181818;stroke-width:0.8000000000000002;" x1="510.8" x2="574.4" y1="189.8438" y2="189.8438"/><text fill="#000000" font-family="sans-serif" font-size="10.4" font-weight="bold" lengthAdjust="spacing" textLength="5.6" x="516.4" y="186.0398">7</text><text fill="#000000" font-family="sans-serif" font-size="10.4" lengthAdjust="spacing" textLength="35.2" x="525.2" y="186.0398">create()</text><polygon fill="#181818" points="256.8,209.4625,248.8,212.6625,256.8,215.8625,253.6,212.6625" style="stroke:#181818;stroke-width:0.8000000000000002;"/><line style="stroke:#181818;stroke-width:0.8000000000000002;stroke-dasharray:2.0,2.0;" x1="252" x2="341.6" y1="212.6625" y2="212.6625"/><text fill="#000000" font-family="sans-serif" font-size="10.4" font-weight="bold" lengthAdjust="spacing" textLength="5.6" x="261.6" y="208.8586">8</text><text fill="#000000" font-family="sans-serif" font-size="10.4" lengthAdjust="spacing" textLength="58.4" x="270.4" y="208.8586">UserInfoDTO</text><polygon fill="#181818" points="104.8,232.2813,96.8,235.4813,104.8,238.6813,101.6,235.4813" style="stroke:#181818;stroke-width:0.8000000000000002;"/><line style="stroke:#181818;stroke-width:0.8000000000000002;stroke-dasharray:2.0,2.0;" x1="100" x2="243.2" y1="235.4813" y2="235.4813"/><text fill="#000000" font-family="sans-serif" font-size="10.4" font-weight="bold" lengthAdjust="spacing" textLength="5.6" x="109.6" y="231.6773">9</text><text fill="#000000" font-family="sans-serif" font-size="10.4" lengthAdjust="spacing" textLength="58.4" x="118.4" y="231.6773">UserInfoDTO</text><polygon fill="#181818" points="8.8,255.1,0.8,258.3,8.8,261.5,5.6,258.3" style="stroke:#181818;stroke-width:0.8000000000000002;"/><line style="stroke:#181818;stroke-width:0.8000000000000002;stroke-dasharray:2.0,2.0;" x1="4" x2="91.2" y1="258.3" y2="258.3"/><text fill="#000000" font-family="sans-serif" font-size="10.4" font-weight="bold" lengthAdjust="spacing" textLength="11.2" x="13.6" y="254.4961">10</text><text fill="#000000" font-family="sans-serif" font-size="10.4" lengthAdjust="spacing" textLength="58.4" x="28" y="254.4961">UserInfoDTO</text><!--SRC=[VL7BJiCm4BplLwnwIgNw1onK3hp4eQe4vGDCkg18mGxEfkBpyHg7R97fmTgrTsRi6Rk9Wvy-NYa232vortQ3yumh-p9IV0eJqmhTYFTz2B62k0cUO-XxYXcsR2lOPugdhltHAttjJXf2XaXJcU_SaCUfLgQtXtsUfWfm7SmsFzpYmzq1NClToJ4LCv0BcgrwjSLtOj5vz6-XYVIvmKZZ1ZrzyNeHK3PXwKMg-3hNwOwAEpk7qWXBh5wWv2G0fA3HbynmED8vM6cdd2noI84qCrn9Iuff2J0XR1ifdJPhBIYGHV1FNBEavAquloPrEebQVkCVbexrofZBuFA9tm00]--></g></svg>